<svg id="Layer_1" xmlns="http://www.w3.org/2000/svg" viewBox="0 0 480.5 68.6">
  <style>
    .st0{fill:#00263e}
  </style>
  <path class="st0" d="M309.9 55.6h9.9v2.9h-6.1V61h5.7v3h-5.7v4.4h-3.8V55.6zM334.6 56.2c1.1.6 1.9 1.4 2.5 2.4.6 1 .9 2.1.9 3.4 0 1.3-.3 2.4-.9 3.4-.6 1-1.4 1.8-2.5 2.4-1.1.6-2.2.9-3.6.9-1.3 0-2.5-.3-3.6-.9-1.1-.6-1.9-1.4-2.5-2.4s-.9-2.1-.9-3.4c0-1.2.3-2.4.9-3.4s1.4-1.8 2.5-2.4c1.1-.6 2.2-.9 3.6-.9 1.3.1 2.5.4 3.6.9zm-5.1 2.8c-.5.3-.9.7-1.1 1.2s-.4 1.1-.4 1.8c0 .6.1 1.2.4 1.8s.7 1 1.1 1.3c.5.3 1 .5 1.6.5.5 0 1.1-.2 1.5-.5.5-.3.8-.7 1.1-1.3.3-.5.4-1.1.4-1.8 0-.6-.1-1.2-.4-1.8s-.6-.9-1.1-1.2c-.5-.3-1-.5-1.5-.5-.6 0-1.1.2-1.6.5zM352.7 56.2c1.1.6 1.9 1.4 2.5 2.4.6 1 .9 2.1.9 3.4 0 1.3-.3 2.4-.9 3.4-.6 1-1.4 1.8-2.5 2.4-1.1.6-2.2.9-3.6.9-1.3 0-2.5-.3-3.6-.9-1.1-.6-1.9-1.4-2.5-2.4-.6-1-.9-2.1-.9-3.4 0-1.2.3-2.4.9-3.4.6-1 1.4-1.8 2.5-2.4 1.1-.6 2.2-.9 3.6-.9 1.3.1 2.5.4 3.6.9zm-5.1 2.8c-.5.3-.9.7-1.1 1.2s-.5 1.1-.5 1.8c0 .6.1 1.2.4 1.8s.7 1 1.1 1.3c.5.3 1 .5 1.6.5.5 0 1.1-.2 1.5-.5.5-.3.8-.7 1.1-1.3.3-.5.4-1.1.4-1.8 0-.6-.1-1.2-.4-1.8-.3-.5-.6-.9-1.1-1.2-.5-.3-1-.5-1.5-.5s-1 .2-1.5.5zM370.3 56.4c1 .5 1.8 1.3 2.4 2.2.6 1 .9 2.1.9 3.3 0 1.3-.3 2.4-.9 3.3-.6 1-1.4 1.7-2.5 2.2-1.1.5-2.3.8-3.7.8H361V55.6h5.6c1.4 0 2.6.3 3.7.8zm-1.4 8.1c.5-.6.8-1.4.8-2.5 0-1-.3-1.8-.9-2.5-.6-.6-1.3-.9-2.2-.9h-1.7v6.8h1.9c.9 0 1.6-.3 2.1-.9zM385.5 58.7c-.8-.3-1.5-.4-2-.4-.3 0-.6.1-.8.2-.2.1-.3.3-.3.6s.2.6.5.8.9.4 1.7.6c.9.3 1.6.5 2.2.8.6.3 1.1.7 1.5 1.2.4.5.6 1.2.6 2.1 0 .9-.2 1.6-.7 2.2-.5.6-1.1 1.1-1.9 1.4-.8.3-1.7.5-2.7.5-1.1 0-2.2-.2-3.3-.6-1.1-.4-2-.9-2.8-1.5l1.4-2.9c.6.6 1.4 1 2.4 1.4.9.4 1.7.6 2.4.6.4 0 .7-.1 1-.2.2-.2.3-.4.3-.7 0-.4-.2-.6-.6-.8-.4-.2-1-.4-1.7-.6-.9-.2-1.6-.5-2.2-.7-.6-.2-1.1-.6-1.5-1.2-.4-.5-.6-1.2-.6-2.1 0-.8.2-1.5.7-2.2.4-.6 1.1-1.1 1.8-1.4.8-.3 1.7-.5 2.8-.5 1 0 1.9.1 2.9.4.9.3 1.8.6 2.5 1.1l-1.4 2.9c-.6-.4-1.4-.7-2.2-1zM394.1 55.6h10.4v2.9h-6.6v2h6v2.9h-6v2h6.8v2.9h-10.6V55.6zM417.7 68.4L416 65h-2v3.4h-3.8V55.6h5.9c1.7 0 3 .4 4 1.2.9.8 1.4 1.9 1.4 3.3 0 .9-.2 1.7-.6 2.4-.4.7-.9 1.2-1.6 1.6l2.6 4.2h-4.2zM414 62h2.2c.6 0 1-.2 1.3-.5.3-.3.5-.7.5-1.3 0-.6-.2-1-.5-1.3-.3-.3-.7-.4-1.3-.4H414V62zM425.8 55.6h4l2.9 8.8 2.9-8.8h3.9l-4.9 12.7h-3.9l-4.9-12.7zM444.1 55.6h3.8v12.7h-3.8V55.6zM461.5 59c-.6-.3-1.1-.5-1.6-.5-.6 0-1.1.1-1.5.4-.5.3-.8.7-1.1 1.2-.3.5-.4 1.1-.4 1.7 0 .6.1 1.2.4 1.7.3.5.6.9 1.1 1.2.5.3 1 .4 1.5.4s1-.1 1.6-.4c.6-.3 1-.6 1.5-1.1l2.2 2.3c-.7.8-1.5 1.4-2.5 1.8-1 .4-1.9.7-2.9.7-1.3 0-2.4-.3-3.4-.9-1-.6-1.8-1.4-2.4-2.4-.6-1-.9-2.2-.9-3.4 0-1.2.3-2.4.9-3.4.6-1 1.4-1.8 2.5-2.4 1-.6 2.2-.9 3.5-.9 1 0 1.9.2 2.9.6 1 .4 1.8 1 2.4 1.7l-2.2 2.6c-.6-.2-1.1-.6-1.6-.9zM469.9 55.6h10.4v2.9h-6.6v2h6v2.9h-6v2h6.8v2.9h-10.6V55.6z"/>
  <g>
    <path class="st0" d="M50.7.9v7.6h3.8l-6.6 22.1L37.8.9h-7.4L20.3 30.6 13.6 8.5h3.9V.9H0v7.6h4.3l12.3 37H24l10.1-30.2 10.1 30.2h7.4l12.3-37h4.3V.9zM74.1.9v7.7H79v29.1h-4.9v7.8H107V32h-8.3v5.7H88.1v-9.6h10.4v-7.8H88.1V8.6h10.6v5.7h8.3V.9zM116.6 12.2c0-7.2 5.3-12.1 15-12.1 4.7 0 9.5 1.4 12.6 3.8v9.7h-8V8.9c-1.1-.6-3.2-.9-4.5-.9-3.6 0-5.8 1.5-5.8 3.8 0 2.5 2.3 4 8.4 6.8 7.8 3.6 12.2 7.5 12.2 14.2 0 8.2-5.7 13.5-16.5 13.5-4.8 0-10.2-1.4-13.7-3.9V31.6h8v5.6c1.4.7 3.8 1.1 5.7 1.1 4.4 0 7.2-1.7 7.2-4.8 0-3.3-2.6-5.2-8.1-7.6-8.9-3.8-12.5-7.9-12.5-13.7M152.8.9v13.4h8V8.6h5.8v29.1h-4.8v7.8h18.9v-7.8h-4.9V8.6h5.9v5.7h8V.9zM219.2 38.4c8.1 0 14.6-6.2 14.6-15.2S227.3 8 219.2 8s-14.6 6.2-14.6 15.2 6.5 15.2 14.6 15.2m0-38.3c13.4 0 23.9 9.6 23.9 23.1s-10.5 23.1-23.9 23.1-23.9-9.6-23.9-23.1S205.8.1 219.2.1M277.8.9v7.7h4.9v20.3L261.4.9h-11.6v7.7h4.9v29.1h-4.9v7.8h18.9v-7.8h-4.9V17.4l21.3 28.1h6.7V8.6h4.9V.9zM310.9.5v6.1h3.3v18.7h-3.3v6.1h14.7v-6.1h-4.3v-5h7.1v-6.1h-7.1V6.6h6v3.8h6.4V.5zM357.3 25.7c-5.3 0-9.4-4.2-9.4-9.8s4-9.8 9.4-9.8c5.3 0 9.4 4.2 9.4 9.8s-4.1 9.8-9.4 9.8m0-25.7c-9.4 0-16.5 6.9-16.5 15.9 0 9.1 7.1 15.9 16.5 15.9s16.5-6.8 16.5-15.9c0-9-7.1-15.9-16.5-15.9M396.6 25.7c-5.3 0-9.4-4.2-9.4-9.8s4-9.8 9.4-9.8 9.4 4.2 9.4 9.8-4 9.8-9.4 9.8m0-25.7c-9.4 0-16.5 6.9-16.5 15.9 0 9.1 7.1 15.9 16.5 15.9s16.5-6.8 16.5-15.9c0-9-7.1-15.9-16.5-15.9M434.8 25.3h-3.5V6.6h3.5c5.9 0 9.5 3.6 9.5 9.4.1 5.7-3.6 9.3-9.5 9.3m0-24.8H421v6.1h3.3v18.7H421v6.1h13.7c10.3 0 16.7-5.9 16.7-15.4.1-9.6-6.3-15.5-16.6-15.5M472.1 12.4c-4.2-1.9-5.4-2.8-5.4-4.1 0-1.3 1.3-2.1 3.5-2.1.8 0 1.9.2 2.6.4v3.3h6.2V2.8l-.2-.1C476.6 1 473.4 0 470.1 0c-6.5 0-10.5 3.3-10.5 8.6 0 4.1 2.6 7 8.6 9.6 3.9 1.7 5.2 2.9 5.2 4.7 0 1.8-1.6 2.8-4.4 2.8-1.2 0-2.6-.2-3.4-.6v-3.9h-6.2V29l.2.1c2.3 1.7 6 2.7 9.5 2.7 7.2 0 11.5-3.6 11.5-9.5-.1-4.3-2.5-7.1-8.5-9.9"/>
    <path fill="#ff671d" d="M309.9 38.6h170.6v6.9H309.9z"/>
  </g>
</svg>
